<svg id="Layer_1" data-name="Layer 1" xmlns="http://www.w3.org/2000/svg" viewBox="0 0 215 180"><defs><style>.cls-1,.cls-2,.cls-7{fill:none;}.cls-2{stroke:#717070;stroke-dasharray:5;}.cls-3,.cls-4{isolation:isolate;}.cls-4{font-size:15px;fill:#9b9a9a;font-family:SegoeUI-Semibold, Segoe UI;font-weight:600;}.cls-5{letter-spacing:-0.01em;}.cls-6{letter-spacing:-0.01em;}.cls-7{stroke:#8e8f8f;stroke-miterlimit:10;stroke-width:2px;}</style></defs><title>upload</title><g id="Group_202" data-name="Group 202"><g id="Rectangle_38" data-name="Rectangle 38"><rect class="cls-1" width="215" height="180" rx="31"/><rect class="cls-2" x="0.5" y="0.5" width="214" height="179" rx="30.5"/></g><g id="Upload_image_here" data-name="Upload image here" class="cls-3"><text class="cls-4" transform="translate(59.84 113)">Upl<tspan class="cls-5" x="23.5" y="0">o</tspan><tspan x="32.29" y="0">ad image </tspan></text><text class="cls-4" transform="translate(92.46 133)">he<tspan class="cls-6" x="16.7" y="0">r</tspan><tspan x="22.12" y="0">e</tspan></text></g><g id="Group_18" data-name="Group 18"><path id="Path_8" data-name="Path 8" class="cls-7" d="M104.61,88.13a23.46,23.46,0,0,1-12.31-1c-2.82-1-7.29-2.71-9.58-7.18-2.54-5-2-12.57,3.08-16.42,4-3,8.84-2.26,9.92-2.06,0-.9.42-6.22,4.79-9.58,3.4-2.61,7.18-2.47,9.24-2.39a14.71,14.71,0,0,1,9.92,3.76,13.84,13.84,0,0,1,3.76,6.5c1-.15,8.22-1.16,12.31,3.42,2,2.22,2.51,4.93,3.08,7.87a15.87,15.87,0,0,1,0,8.21,14.86,14.86,0,0,1-3.42,5.82,16.7,16.7,0,0,1-4.1,3.08c-6.14,3.13-13.4.08-14.37-.34" transform="translate(-3.1 -3.5)"/><line id="Line_4" data-name="Line 4" class="cls-7" x1="108.1" y1="63.8" x2="108.1" y2="93.05"/><line id="Line_5" data-name="Line 5" class="cls-7" x1="108.34" y1="64.57" x2="117.66" y2="78.1"/><line id="Line_6" data-name="Line 6" class="cls-7" x1="107.87" y1="64.57" x2="98.54" y2="78.09"/></g></g></svg>